<?xml version="1.0" encoding="UTF-8"?>
<svg width="62px" height="63px" viewBox="0 0 62 63" version="1.1" xmlns="http://www.w3.org/2000/svg" xmlns:xlink="http://www.w3.org/1999/xlink">
    <!-- Generator: Sketch 52.5 (67469) - http://www.bohemiancoding.com/sketch -->
    <title>Group 10</title>
    <desc>Created with Sketch.</desc>
    <g id="Page-1" stroke="none" stroke-width="1" fill="none" fill-rule="evenodd">
        <g id="Group-10" fill="#FFFFFF">
            <path d="M50.9,2.037 L47.419,15.88 L39.212,48.426 L61.5,10 C61.626,9.785 61.726,9.556 61.799,9.317 C61.855,9.136 61.889,8.95 61.9,8.761 L61.9,8.588 C61.875,5.949 57.599,3.6 50.9,2.037 Z" id="Path"></path>
            <path d="M20.44,0.521 C8.542,1.713 0.035,4.873 1.03028697e-13,8.576 L1.03028697e-13,8.75 C0.031,9.189 0.171,9.615 0.404,9.988 L30.914,62.499 L23.206,16.921 L20.44,0.521 Z" id="Path"></path>
            <path d="M39.386,0.336 L35.9,17.083 L32.731,32.338 L30.266,17.188 L27.5,0.058 C28.633,0.023 29.779,-1.31450406e-13 30.938,-1.31450406e-13 C33.866,0.012 36.7,0.127 39.386,0.336 Z" id="Path"></path>
        </g>
    </g>
</svg>